<svg width="17" height="25" viewBox="0 0 17 25" fill="none" xmlns="http://www.w3.org/2000/svg">
<path d="M14 5.39062C13.1716 5.39062 12.5 6.0622 12.5 6.89062C12.5 7.13271 12.557 7.36004 12.6578 7.5613C12.9047 8.05409 13.4135 8.39062 14 8.39062C14.8284 8.39062 15.5 7.71905 15.5 6.89062C15.5 6.0622 14.8284 5.39062 14 5.39062ZM11.5 6.89062C11.5 5.50991 12.6193 4.39062 14 4.39062C15.3807 4.39062 16.5 5.50991 16.5 6.89062C16.5 8.27134 15.3807 9.39062 14 9.39062C13.2009 9.39062 12.49 9.01565 12.0327 8.4333L5.41495 11.7422C5.47045 11.9493 5.5 12.1667 5.5 12.3906C5.5 12.6145 5.47045 12.832 5.41495 13.0391L12.0327 16.3479C12.49 15.7656 13.2009 15.3906 14 15.3906C15.3807 15.3906 16.5 16.5099 16.5 17.8906C16.5 19.2713 15.3807 20.3906 14 20.3906C12.6193 20.3906 11.5 19.2713 11.5 17.8906C11.5 17.6667 11.5296 17.4492 11.5851 17.2421L4.96731 13.9333C4.51002 14.5156 3.7991 14.8906 3 14.8906C1.61929 14.8906 0.5 13.7713 0.5 12.3906C0.5 11.0099 1.61929 9.89062 3 9.89062C3.7991 9.89062 4.51003 10.2656 4.96731 10.848L11.5851 7.53908C11.5296 7.33201 11.5 7.11455 11.5 6.89062ZM3 10.8906C2.17157 10.8906 1.5 11.5622 1.5 12.3906C1.5 13.2191 2.17157 13.8906 3 13.8906C3.58651 13.8906 4.09533 13.5541 4.34221 13.0613C4.44303 12.86 4.5 12.6327 4.5 12.3906C4.5 12.1485 4.44303 11.9212 4.34221 11.72C4.09533 11.2272 3.58652 10.8906 3 10.8906ZM14 16.3906C13.4135 16.3906 12.9047 16.7271 12.6578 17.2199C12.557 17.4212 12.5 17.6485 12.5 17.8906C12.5 18.719 13.1716 19.3906 14 19.3906C14.8284 19.3906 15.5 18.719 15.5 17.8906C15.5 17.0622 14.8284 16.3906 14 16.3906Z" fill="black"/>
</svg>
