<svg width="24" height="24" viewBox="0 0 24 24" fill="none" xmlns="http://www.w3.org/2000/svg">
<path d="M0 1.8C0 0.805884 0.805884 0 1.8 0H11.4C12.3941 0 13.2 0.805884 13.2 1.8V3.39564L8.63635 5.35148L8.16365 4.24852L12 2.60436V1.8C12 1.46863 11.7313 1.2 11.4 1.2H1.8C1.46863 1.2 1.2 1.46863 1.2 1.8V10.8H3.6V12H1.2V22.2C1.2 22.5313 1.46863 22.8 1.8 22.8H12V20.4H13.2V22.8H22.2C22.5313 22.8 22.8 22.5313 22.8 22.2V12.6C22.8 12.2687 22.5313 12 22.2 12H13.2V15.3956L8.63635 17.3515L8.16365 16.2485L12 14.6044V12H8.4V10.8H12V8.4H13.2V10.8H22.2C23.1941 10.8 24 11.6059 24 12.6V22.2C24 23.1941 23.1941 24 22.2 24H1.8C0.805884 24 0 23.1941 0 22.2V1.8Z" fill="black"/>
</svg>
