<svg width="16" height="16" viewBox="0 0 16 16" fill="none" xmlns="http://www.w3.org/2000/svg">
<path d="M0.882746 7.73437L3.81765 9.60358V13.8321L7.38212 15.8339C7.77663 16.0554 8.22322 16.0554 8.61773 15.8339L12.1822 13.8321V9.68375L14.2733 8.39432V11.5057H15.3189V7.72193C16.2951 6.85921 16.2219 4.85819 15.0994 4.16604L8.66039 0.195602C8.24376 -0.0613043 7.76202 -0.0653185 7.34292 0.1846L0.918693 4.01568C-0.289248 4.73602 -0.310886 6.97417 0.882746 7.73437ZM14.6543 6.64528C15.0545 6.39847 15.0545 5.65246 14.6543 5.40566L8.21519 1.43522C8.07631 1.34958 7.91574 1.34824 7.77604 1.43155L1.3518 5.26263C0.94915 5.50274 0.941946 6.24878 1.33982 6.5022L7.77868 10.603C7.9209 10.6936 8.08676 10.695 8.22983 10.6067L14.6543 6.64528ZM8.67503 11.8464L11.1366 10.3285V12.9287L8.20586 14.5745C8.07436 14.6484 7.9255 14.6484 7.79399 14.5745L4.86322 12.9287V10.2695L7.32161 11.8352C7.74825 12.107 8.24582 12.111 8.67503 11.8464Z" fill="black"/>
</svg>
