<svg width="403" height="29" viewBox="0 0 403 29" fill="none" xmlns="http://www.w3.org/2000/svg">
<path d="M163 12.0733C163 5.40541 157.627 0 151 0C144.373 0 139 5.40541 139 12.0733C139 18.0994 143.388 23.0942 149.125 24V15.5633H146.078V12.0733H149.125V9.41342C149.125 6.38755 150.917 4.71614 153.658 4.71614C154.971 4.71614 156.344 4.95196 156.344 4.95196V7.92313H154.831C153.34 7.92313 152.875 8.85386 152.875 9.80868V12.0733H156.203L155.671 15.5633H152.875V24C158.612 23.0942 163 18.0994 163 12.0733Z" fill="black"/>
<path d="M208.558 6.75918C208.558 6.49686 208.558 6.23571 208.543 5.97574C209.507 5.11772 210.339 4.05536 211 2.83837C210.101 3.32853 209.148 3.64998 208.172 3.79199C209.2 3.0345 209.969 1.84311 210.337 0.439553C209.37 1.14555 208.313 1.6431 207.21 1.91075C205.684 -0.0870198 203.258 -0.575971 201.294 0.718047C199.33 2.01206 198.315 4.76726 198.819 7.43865C194.859 7.19434 191.171 4.89251 188.67 1.10602C187.363 3.87546 188.031 7.4184 190.195 9.19704C189.411 9.16838 188.645 8.90827 187.96 8.43837C187.96 8.46318 187.96 8.48918 187.96 8.51518C187.961 11.4003 189.613 13.8854 191.91 14.4567C191.185 14.7 190.425 14.7356 189.687 14.5607C190.332 17.0297 192.181 18.7211 194.287 18.7699C192.544 20.4566 190.39 21.3722 188.172 21.3696C187.78 21.3685 187.389 21.3394 187 21.2821C189.252 23.0608 191.872 24.0043 194.548 24C203.604 24.0047 208.558 14.7687 208.558 6.75918Z" fill="black"/>
<path d="M257.224 0H236.771C235.794 0 235 0.774672 235 1.72933V22.2683C235 23.2242 235.794 24 236.771 24H257.224C258.202 24 259 23.2242 259 22.2683V1.72933C259 0.774672 258.202 0 257.224 0ZM251.894 20.4515H255.451V14.1692C255.451 11.0855 254.785 8.71319 251.181 8.71319C249.449 8.71319 248.288 9.66252 247.813 10.5629H247.765V8.99785H244.351V20.4515H247.907V14.7856C247.907 13.2917 248.192 11.8448 250.044 11.8448C251.869 11.8448 251.894 13.5534 251.894 14.8816V20.4515ZM238.273 5.36831C238.273 6.50782 239.196 7.43264 240.337 7.43264C241.475 7.43264 242.4 6.50782 242.4 5.36831C242.4 4.22981 241.475 3.30498 240.337 3.30498C239.196 3.30498 238.273 4.22981 238.273 5.36831ZM242.118 20.452H238.558V8.99834H242.118V20.452Z" fill="black"/>
<path d="M288.836 12.0006C288.836 15.4039 291.595 18.1627 294.999 18.1627C298.402 18.1627 301.161 15.4039 301.161 12.0006C301.161 8.59725 298.402 5.83838 294.999 5.83838C291.595 5.83838 288.836 8.59725 288.836 12.0006ZM295 16.0006C292.791 16.0006 291 14.2099 291 12.0007C291 9.79148 292.791 8.00068 295 8.00068C297.209 8.00068 299 9.79148 299 12.0007C299 14.2099 297.209 16.0006 295 16.0006Z" fill="black"/>
<path d="M299.965 5.59481C299.965 6.39011 300.61 7.03479 301.405 7.03479C302.201 7.03479 302.845 6.39011 302.845 5.59481C302.845 4.79951 302.201 4.15479 301.405 4.15479C300.61 4.15479 299.965 4.79951 299.965 5.59481Z" fill="black"/>
<path d="M295 0C291.741 0 291.332 0.0138119 290.052 0.0722159C288.775 0.130464 287.903 0.333348 287.14 0.630012C286.35 0.936624 285.681 1.34695 285.014 2.01407C284.347 2.68123 283.937 3.35044 283.63 4.13954C283.333 4.90283 283.13 5.77516 283.072 7.05241C283.014 8.33234 283 8.74099 283 12C283 15.259 283.014 15.6677 283.072 16.9476C283.13 18.2249 283.333 19.0972 283.63 19.8605C283.937 20.6496 284.347 21.3187 285.014 21.9859C285.681 22.653 286.35 23.0634 287.14 23.37C287.903 23.6666 288.775 23.8696 290.052 23.9278C291.332 23.9862 291.741 24 295 24C298.259 24 298.668 23.9862 299.948 23.9278C301.225 23.8696 302.097 23.6666 302.86 23.37C303.65 23.0634 304.319 22.653 304.986 21.9859C305.653 21.3187 306.063 20.6496 306.37 19.8605C306.667 19.0972 306.87 18.2249 306.928 16.9476C306.986 15.6677 307 15.259 307 12C307 8.74099 306.986 8.33234 306.928 7.05241C306.87 5.77516 306.667 4.90283 306.37 4.13954C306.063 3.35044 305.653 2.68123 304.986 2.01407C304.319 1.34695 303.65 0.936624 302.86 0.630012C302.097 0.333348 301.225 0.130464 299.948 0.0722159C298.668 0.0138119 298.259 0 295 0ZM294.999 2.1626C298.203 2.1626 298.582 2.17484 299.848 2.23258C301.018 2.28593 301.653 2.48142 302.076 2.64576C302.636 2.86345 303.036 3.12348 303.456 3.54342C303.876 3.96331 304.136 4.36307 304.353 4.92319C304.518 5.34604 304.713 5.98144 304.767 7.15142C304.824 8.41678 304.837 8.79632 304.837 12.0005C304.837 15.2046 304.824 15.5842 304.767 16.8494C304.713 18.0194 304.518 18.6548 304.353 19.0777C304.136 19.6379 303.876 20.0376 303.456 20.4575C303.036 20.8774 302.636 21.1374 302.076 21.3551C301.653 21.5195 301.018 21.715 299.848 21.7684C298.583 21.8261 298.203 21.8383 294.999 21.8383C291.794 21.8383 291.415 21.8261 290.15 21.7684C288.98 21.715 288.344 21.5195 287.921 21.3551C287.361 21.1374 286.962 20.8774 286.542 20.4575C286.122 20.0376 285.862 19.6379 285.644 19.0777C285.48 18.6548 285.284 18.0194 285.231 16.8494C285.173 15.5842 285.161 15.2046 285.161 12.0005C285.161 8.79632 285.173 8.41678 285.231 7.15142C285.284 5.98144 285.48 5.34604 285.644 4.92319C285.862 4.36307 286.122 3.96331 286.542 3.54342C286.962 3.12348 287.361 2.86345 287.921 2.64576C288.344 2.48142 288.98 2.28593 290.15 2.23258C291.415 2.17484 291.795 2.1626 294.999 2.1626Z" fill="black"/>
<path d="M353.806 1.79056C354.526 2.82606 354.76 5.17752 354.76 5.17752C354.76 5.17752 355 7.93891 355 10.7003V13.2891C355 16.0504 354.76 18.8117 354.76 18.8117C354.76 18.8117 354.526 21.1632 353.806 22.1987C352.984 23.424 352.071 23.5502 351.556 23.6213C351.499 23.6291 351.448 23.6363 351.401 23.6441C348.043 23.9893 343 24 343 24C343 24 336.76 23.9191 334.84 23.6572C334.749 23.6329 334.638 23.6141 334.513 23.5927C333.904 23.4886 332.951 23.3255 332.194 22.1987C331.474 21.1632 331.24 18.8117 331.24 18.8117C331.24 18.8117 331 16.0504 331 13.2891V10.7003C331 7.93891 331.24 5.17752 331.24 5.17752C331.24 5.17752 331.474 2.82606 332.194 1.79056C333.017 0.565261 333.929 0.439157 334.444 0.367923C334.501 0.360139 334.552 0.353027 334.598 0.345191C337.957 -3.6008e-07 342.995 0 342.995 0H343.005C343.005 0 348.043 -3.6008e-07 351.401 0.345191C351.448 0.353027 351.499 0.360156 351.556 0.367923C352.071 0.439174 352.983 0.565278 353.806 1.79056ZM340.52 6.83759L340.521 16.4253L347.005 11.6481L340.52 6.83759Z" fill="black"/>
<path d="M403 12C403 14.177 402.464 16.1849 401.391 18.0234C400.318 19.8619 398.862 21.3178 397.023 22.3907C395.185 23.4636 393.177 24 391 24C389.844 24 388.708 23.8333 387.594 23.5C388.208 22.5312 388.615 21.677 388.813 20.9375C388.906 20.5834 389.188 19.4844 389.656 17.6406C389.865 18.0469 390.245 18.3984 390.797 18.6953C391.349 18.9922 391.943 19.1406 392.578 19.1406C393.839 19.1406 394.964 18.7838 395.953 18.0703C396.943 17.3568 397.708 16.375 398.25 15.125C398.792 13.875 399.063 12.4687 399.063 10.9062C399.063 9.7188 398.753 8.60417 398.133 7.5625C397.513 6.52084 396.615 5.67187 395.437 5.01563C394.26 4.35937 392.932 4.03126 391.453 4.03126C390.359 4.03126 389.339 4.18229 388.391 4.48438C387.443 4.78646 386.638 5.1875 385.977 5.6875C385.315 6.1875 384.747 6.76302 384.273 7.41407C383.799 8.0651 383.451 8.73959 383.227 9.4375C383.003 10.1354 382.891 10.8334 382.891 11.5313C382.891 12.6146 383.099 13.5677 383.516 14.3906C383.932 15.2136 384.542 15.7916 385.344 16.125C385.656 16.25 385.854 16.1459 385.938 15.8125C385.958 15.7396 386 15.5782 386.063 15.3281C386.125 15.0781 386.167 14.9219 386.187 14.8594C386.25 14.6198 386.193 14.3958 386.016 14.1875C385.484 13.5521 385.219 12.7656 385.219 11.8282C385.219 10.2552 385.763 8.90364 386.852 7.77343C387.94 6.64322 389.365 6.07812 391.125 6.07812C392.698 6.07812 393.925 6.50521 394.805 7.35937C395.685 8.21354 396.125 9.32292 396.125 10.6874C396.125 12.4583 395.768 13.9636 395.055 15.2032C394.341 16.4428 393.427 17.0626 392.313 17.0626C391.677 17.0626 391.167 16.8359 390.781 16.3828C390.396 15.9296 390.276 15.3854 390.422 14.75C390.505 14.3854 390.643 13.8984 390.836 13.289C391.029 12.6797 391.185 12.1433 391.305 11.6797C391.424 11.2162 391.484 10.8229 391.484 10.5C391.484 9.9792 391.344 9.54688 391.063 9.20312C390.781 8.85937 390.38 8.6875 389.859 8.6875C389.214 8.6875 388.667 8.98438 388.219 9.57812C387.771 10.1719 387.547 10.9115 387.547 11.7968C387.547 12.5573 387.677 13.1927 387.938 13.7032L386.391 20.2344C386.214 20.9635 386.146 21.8854 386.187 23C384.042 22.052 382.307 20.5885 380.984 18.6094C379.661 16.6302 379 14.4271 379 12C379 9.82296 379.536 7.81511 380.609 5.97656C381.682 4.13802 383.138 2.68229 384.977 1.60938C386.815 0.53646 388.823 0 391 0C393.177 0 395.185 0.53646 397.023 1.60938C398.862 2.68229 400.318 4.13802 401.391 5.97656C402.464 7.81511 403 9.82296 403 12Z" fill="black"/>
</svg>
