<svg width="110" height="20" viewBox="0 0 110 20" fill="none" xmlns="http://www.w3.org/2000/svg">
<g clip-path="url(#clip0_60_805)">
<path d="M100.02 16.06C96.75 16.06 94.2 13.78 94.2 10C94.2 6.32001 96.61 3.91001 100.02 3.91001C103.62 3.91001 106 6.54001 106 10.03C106.038 10.8277 105.91 11.6246 105.623 12.3701C105.337 13.1156 104.899 13.7934 104.336 14.3604C103.774 14.9275 103.1 15.3714 102.357 15.664C101.614 15.9565 100.818 16.0914 100.02 16.06ZM78.7 19.44H89.99V15.87H82.69V0.560013H78.69V19.44H78.7ZM68.29 12.5C67.7106 12.5242 67.1324 12.4276 66.5924 12.2163C66.0523 12.005 65.5621 11.6836 65.153 11.2726C64.7439 10.8616 64.4248 10.3699 64.2159 9.8289C64.0071 9.28788 63.9131 8.70932 63.94 8.13001C63.9191 7.55223 64.0173 6.97633 64.2282 6.43803C64.4392 5.89974 64.7585 5.41054 65.1664 5.00079C65.5743 4.59103 66.062 4.26946 66.5993 4.05602C67.1367 3.84258 67.7121 3.74183 68.29 3.76001C70.84 3.76001 72.71 5.48001 72.71 8.13001C72.71 10.79 70.84 12.5 68.29 12.5ZM59.95 19.45H63.95V12.69C64.4462 13.72 65.229 14.5848 66.2046 15.1808C67.1802 15.7768 68.3071 16.0786 69.45 16.05C73.38 16.05 76.68 12.8 76.68 8.13001C76.68 3.46001 73.38 0.180013 69.44 0.180013C67.03 0.180013 65.04 1.38001 63.94 3.54001V0.540013H59.94V19.44L59.95 19.45ZM48.17 16.13C44.84 16.13 42.24 13.73 42.24 10.06C42.24 6.36001 44.84 3.86001 48.17 3.86001C51.5 3.86001 54.04 6.36001 54.04 10.06C54.04 13.74 51.5 16.13 48.17 16.13ZM48.2 19.83C53.91 19.83 58.07 15.86 58.07 10.06C58.07 4.27001 53.91 0.190013 48.2 0.190013C42.48 0.190013 38.24 4.27001 38.24 10.06C38.24 15.86 42.48 19.83 48.2 19.83ZM26.76 16.13C23.44 16.13 20.86 13.73 20.86 10.06C20.86 6.36001 23.44 3.86001 26.76 3.86001C30.09 3.86001 32.66 6.36001 32.66 10.06C32.66 13.74 30.09 16.13 26.76 16.13ZM26.79 19.83C32.5 19.83 36.66 15.86 36.66 10.06C36.66 4.27001 32.5 0.190013 26.79 0.190013C21.08 0.190013 16.84 4.27001 16.84 10.06C16.84 15.86 21.08 19.83 26.79 19.83ZM0.47998 19.44H15.98V15.87H4.76998C4.86998 13.06 6.88998 12.31 9.16998 11.53C12.3 10.46 15.93 9.09001 15.93 1.98001V0.560013H0.52998V4.10001H11.69C11.59 6.75001 9.61998 7.45001 7.38998 8.20001C4.23998 9.28001 0.48998 10.64 0.48998 18V19.44H0.47998ZM99.3 19.82C100.641 19.8635 101.969 19.5481 103.146 18.9064C104.324 18.2647 105.31 17.32 106 16.17V19.44H110V0.560013H106V3.80001C105.307 2.65413 104.321 1.71427 103.143 1.07779C101.965 0.441302 100.638 0.131343 99.3 0.180013C94.3 0.180013 90.18 4.28001 90.18 10C90.18 15.72 94.31 19.82 99.3 19.82Z" fill="#8046F1"/>
</g>
<defs>
<clipPath id="clip0_60_805">
<rect width="110" height="20" fill="white"/>
</clipPath>
</defs>
</svg>
