<svg width="16" height="19" viewBox="0 0 16 19" fill="none" xmlns="http://www.w3.org/2000/svg">
<path d="M8 5.1875C5.87272 5.1875 3.92243 5.58885 2.48526 6.25953C1.08868 6.91127 0 7.91135 0 9.1875C0 10.4636 1.08868 11.4637 2.48526 12.1155C3.92243 12.7861 5.87272 13.1875 8 13.1875C10.1273 13.1875 12.0776 12.7861 13.5147 12.1155C14.9113 11.4637 16 10.4636 16 9.1875C16 8.06356 15.1555 7.15376 14 6.50748V7.6868C14.6846 8.1774 15 8.70732 15 9.1875C15 9.84435 14.4097 10.5943 13.0919 11.2093C11.8146 11.8054 10.0149 12.1875 8 12.1875C5.98515 12.1875 4.18543 11.8053 2.90814 11.2093C1.59025 10.5943 1 9.84435 1 9.1875C1 8.53065 1.59025 7.78073 2.90814 7.16572C4.18543 6.56965 5.98515 6.1875 8 6.1875V5.1875Z" fill="black"/>
<path d="M8 2.1875C7.34315 2.1875 6.59323 2.77775 5.97822 4.09564C5.38215 5.37293 5 7.17265 5 9.1875H4C4 7.06022 4.40135 5.10993 5.07203 3.67276C5.72377 2.27618 6.72385 1.1875 8 1.1875C9.27615 1.1875 10.2762 2.27618 10.928 3.67276C11.5986 5.10993 12 7.06022 12 9.1875C12 11.3148 11.5986 13.2651 10.928 14.7022C10.2762 16.0988 9.27615 17.1875 8 17.1875C6.87606 17.1875 5.96626 16.343 5.31998 15.1875H6.4993C6.9899 15.8721 7.51982 16.1875 8 16.1875C8.65685 16.1875 9.40677 15.5972 10.0218 14.2794C10.6179 13.0021 11 11.2024 11 9.1875C11 7.17265 10.6179 5.37293 10.0218 4.09564C9.40677 2.77775 8.65685 2.1875 8 2.1875Z" fill="black"/>
</svg>
