<svg width="16" height="19" viewBox="0 0 16 19" fill="none" xmlns="http://www.w3.org/2000/svg">
<path d="M1.14286 10.7969H7.42857C8.37535 10.7969 9.14286 11.4684 9.14286 12.2969C9.14286 12.573 9.3987 12.7969 9.71429 12.7969H14.2857C14.6013 12.7969 14.8571 12.573 14.8571 12.2969V7.29688C14.8571 7.02073 14.6013 6.79688 14.2857 6.79688H9.71429C8.76751 6.79688 8 6.12531 8 5.29688C8 5.02074 7.74416 4.79688 7.42857 4.79688H1.14286V10.7969ZM0 17.7969H1.14286V11.7969H7.42857C7.74416 11.7969 8 12.0208 8 12.2969C8 13.1253 8.76751 13.7969 9.71429 13.7969H14.2857C15.2325 13.7969 16 13.1253 16 12.2969V7.29688C16 6.46844 15.2325 5.79688 14.2857 5.79688H9.71429C9.3987 5.79688 9.14286 5.57301 9.14286 5.29688C9.14286 4.46845 8.37535 3.79688 7.42857 3.79688H1.14286V1.79688H0V17.7969Z" fill="black"/>
</svg>
