<svg width="17" height="20" viewBox="0 0 17 20" fill="none" xmlns="http://www.w3.org/2000/svg">
<path d="M4.3164 3.1884L1.98724 3.18843C1.7074 3.18843 1.49337 3.41377 1.5011 3.67508C1.63296 8.13298 2.67997 11.4139 4.80577 13.62C6.92837 15.8229 10.2116 17.0418 15.0138 17.1864C15.2741 17.1942 15.4991 16.9811 15.4991 16.7005V14.3713C15.4991 14.1456 15.3481 13.9478 15.1303 13.8885L12.9814 13.3023C12.8388 13.2635 12.6864 13.2896 12.5648 13.3737L10.7796 14.6097C10.6576 14.6942 10.5042 14.7201 10.3612 14.6806C8.9292 14.2842 7.5222 13.3986 6.38902 12.2747C5.25641 11.1515 4.36479 9.75764 4.00395 8.31424C3.96901 8.17449 3.99599 8.02644 4.07798 7.90801L5.31395 6.1227C5.39806 6.0012 5.42417 5.84874 5.38529 5.70617L4.79921 3.55717C4.73983 3.33944 4.54208 3.18839 4.3164 3.1884ZM1.98723 2.18753L4.31639 2.1875C4.99341 2.18749 5.58668 2.64063 5.76482 3.29381L6.3509 5.44281C6.46755 5.87053 6.3892 6.32792 6.13686 6.69242L5.0334 8.28634C5.37294 9.4412 6.11836 10.5967 7.09382 11.5641C8.06759 12.5299 9.24182 13.2796 10.4072 13.6502L11.9951 12.5508C12.3597 12.2984 12.817 12.2201 13.2447 12.3368L15.3937 12.9228C16.0468 13.101 16.5 13.6943 16.5 14.3713V16.7005C16.5 17.5254 15.8283 18.2122 14.9837 18.1868C10.0402 18.038 6.45811 16.7774 4.08505 14.3146C1.71517 11.8551 0.636115 8.28444 0.50066 3.70467C0.475705 2.86092 1.16154 2.18754 1.98723 2.18753Z" fill="black"/>
</svg>
