<svg width="16" height="22" viewBox="0 0 16 22" fill="none" xmlns="http://www.w3.org/2000/svg">
<path d="M8 1.80469C4.13401 1.80469 1 4.9387 1 8.80469C1 12.6707 4.13401 15.8047 8 15.8047C11.866 15.8047 15 12.6707 15 8.80469C15 4.9387 11.866 1.80469 8 1.80469ZM0 8.80469C0 4.38641 3.58172 0.804688 8 0.804688C12.4183 0.804688 16 4.38641 16 8.80469C16 13.223 12.4183 16.8047 8 16.8047C3.58172 16.8047 0 13.223 0 8.80469Z" fill="black"/>
<path d="M6.23586 6.9008C6.23586 6.0608 6.69186 5.1008 8.09586 5.1008C9.43986 5.1008 9.89586 5.96479 9.89586 6.70879C9.89586 8.44879 7.51986 8.1128 7.51986 10.4648V10.6688H8.56386V10.4648C8.56386 8.8328 10.9519 8.8688 10.9519 6.6848C10.9519 5.6408 10.2799 4.16479 8.11986 4.16479C6.09186 4.16479 5.20386 5.5088 5.20386 6.9008H6.23586ZM8.05986 12.9128C8.44386 12.9128 8.75586 12.6008 8.75586 12.1928C8.75586 11.8088 8.44386 11.4968 8.05986 11.4968C7.65186 11.4968 7.33986 11.8088 7.33986 12.1928C7.33986 12.6008 7.65186 12.9128 8.05986 12.9128Z" fill="black"/>
</svg>
