<svg width="17" height="25" viewBox="0 0 17 25" fill="none" xmlns="http://www.w3.org/2000/svg">
<path d="M7.79127 6.57159L6.64679 7.81778L7.35378 8.58769L9.11233 6.67286C10.5737 5.0816 12.9428 5.08159 14.4042 6.67285C15.8647 8.26325 15.8655 10.8413 14.4065 12.4327L14.1467 12.708L13.8382 13.0349L13.7029 13.1782L13.7047 13.1802L8.49725 18.8509L3.44654 13.3509L3.44907 13.3481L3.15785 13.0366L2.85194 12.7035L2.84923 12.7064L2.59431 12.4337C1.13453 10.8423 1.13504 8.2636 2.59583 6.67289C4.02542 5.11616 6.32399 5.08239 7.79127 6.57159ZM8.49996 5.8027C6.64192 3.88714 3.70935 3.92058 1.88882 5.90302C0.0370602 7.91947 0.0370602 11.1888 1.88882 13.2052L1.89197 13.2086L2.45399 13.8099L8.49725 20.3906L14.5404 13.8101L15.1063 13.2104L15.1112 13.2052C16.9629 11.1887 16.9629 7.91942 15.1112 5.90296C13.2907 3.92051 10.358 3.88709 8.49996 5.8027Z" fill="black"/>
</svg>
