<svg width="20" height="20" viewBox="0 0 20 20" fill="none" xmlns="http://www.w3.org/2000/svg">
<path fill-rule="evenodd" clip-rule="evenodd" d="M7.46995 15.5298C7.3295 15.3892 7.25061 15.1986 7.25061 14.9998C7.25061 14.8011 7.3295 14.6105 7.46995 14.4698L11.9399 9.99985L7.46995 5.52985C7.33747 5.38767 7.26535 5.19963 7.26878 5.00532C7.2722 4.81102 7.35092 4.62564 7.48833 4.48822C7.62574 4.35081 7.81113 4.2721 8.00543 4.26867C8.19973 4.26524 8.38778 4.33737 8.52995 4.46985L13.53 9.46985C13.6704 9.61047 13.7493 9.8011 13.7493 9.99985C13.7493 10.1986 13.6704 10.3892 13.53 10.5298L8.52995 15.5298C8.38932 15.6703 8.1987 15.7492 7.99995 15.7492C7.8012 15.7492 7.61058 15.6703 7.46995 15.5298Z" fill="#322744"/>
</svg>
