<svg width="20" height="20" viewBox="0 0 20 20" fill="none" xmlns="http://www.w3.org/2000/svg">
<path fill-rule="evenodd" clip-rule="evenodd" d="M7.47007 15.5298C7.32962 15.3892 7.25073 15.1986 7.25073 14.9998C7.25073 14.8011 7.32962 14.6105 7.47007 14.4698L11.9401 9.99985L7.47007 5.52985C7.33759 5.38767 7.26547 5.19963 7.2689 5.00532C7.27233 4.81102 7.35104 4.62564 7.48845 4.48822C7.62586 4.35081 7.81125 4.2721 8.00555 4.26867C8.19985 4.26524 8.3879 4.33737 8.53007 4.46985L13.5301 9.46985C13.6705 9.61047 13.7494 9.8011 13.7494 9.99985C13.7494 10.1986 13.6705 10.3892 13.5301 10.5298L8.53007 15.5298C8.38945 15.6703 8.19882 15.7492 8.00007 15.7492C7.80132 15.7492 7.6107 15.6703 7.47007 15.5298Z" fill="#322744"/>
</svg>
