<svg width="28" height="24" viewBox="0 0 28 24" fill="none" xmlns="http://www.w3.org/2000/svg">
<path d="M4.2 1.2C2.54315 1.2 1.2 2.54315 1.2 4.2V13.2H24V19.8C24 20.7941 23.1941 21.6 22.2 21.6H21.6V24H20.4V21.6H3.6V24H2.4V21.6H1.8C0.805884 21.6 0 20.7941 0 19.8V4.2C0 1.8804 1.8804 0 4.2 0H9.6V3.6H13.2V4.8H4.8V3.6H8.4V1.2H4.2ZM1.2 14.4V19.8C1.2 20.1313 1.46863 20.4 1.8 20.4H22.2C22.5313 20.4 22.8 20.1313 22.8 19.8V14.4H1.2ZM4.8 9.6V7.2H6V9.6H4.8ZM8.4 7.2V9.6H9.6V7.2H8.4ZM12 7.2V9.6H13.2V7.2H12Z" fill="black"/>
</svg>
