<svg width="48" height="48" viewBox="0 0 48 48" fill="none" xmlns="http://www.w3.org/2000/svg">
<g opacity="0.8">
<path d="M0 4C0 1.79086 1.79086 0 4 0H44C46.2091 0 48 1.79086 48 4V44C48 46.2091 46.2091 48 44 48H4C1.79086 48 0 46.2091 0 44V4Z" fill="white"/>
<path d="M33.9515 13.2L26.0661 13.2V12L36 12V21.9338H34.8V14.0485L26.2243 22.6243L25.3757 21.7758L33.9515 13.2ZM22.6242 26.2243L14.0485 34.8H21.9339V36H12L12 26.0662H13.2L13.2 33.9515L21.7757 25.3758L22.6242 26.2243Z" fill="black"/>
</g>
</svg>
