<svg width="28" height="24" viewBox="0 0 28 24" fill="none" xmlns="http://www.w3.org/2000/svg">
<path d="M2.39999 1.8C2.39999 0.805284 3.20741 0 4.20091 0H19.799C20.7925 0 21.6 0.805284 21.6 1.8V7.2H22.2C23.1941 7.2 24 8.00588 24 9V19.8C24 20.6084 23.4671 21.2923 22.7333 21.5197V24H21.5333V21.6H2.39999V24H1.19999V21.4975C0.500952 21.2504 0.000119861 20.5838 0.000107861 19.8001L1.34011e-10 9.00001C-1.19999e-05 8.0059 0.805884 7.2 1.8 7.2H2.39999V1.8ZM3.59999 7.2H4.19999C5.1941 7.2 5.99999 8.00588 5.99999 9V13.2H18V9C18 8.00588 18.8059 7.2 19.8 7.2H20.4V1.8C20.4 1.46923 20.1311 1.2 19.799 1.2H4.20091C3.86894 1.2 3.59999 1.46923 3.59999 1.8V7.2ZM1.79999 20.4H22.2C22.5313 20.4 22.8 20.1313 22.8 19.8V9C22.8 8.66863 22.5313 8.4 22.2 8.4H19.8C19.4686 8.4 19.2 8.66863 19.2 9V14.4H4.79999V9C4.79999 8.66863 4.53136 8.4 4.19999 8.4H1.8C1.46863 8.4 1.2 8.66863 1.2 9L1.20011 19.8001C1.20011 20.1314 1.46869 20.4 1.79999 20.4Z" fill="black"/>
</svg>
