<svg width="16" height="16" viewBox="0 0 16 16" fill="none" xmlns="http://www.w3.org/2000/svg">
<path d="M8.00003 0C6.79708 0 5.82189 0.89543 5.82189 2C5.82189 2.93192 6.51604 3.71497 7.4555 3.93699V7H5.82189V8H7.4555V14.9725C5.0051 14.7238 3.09918 12.8163 3.09918 10.5C3.09918 10.4203 3.10143 10.3411 3.1059 10.2624L4.3563 11.3612L5.10932 10.6388L2.55459 8.39366L0 10.6388L0.753042 11.3612L2.01613 10.2511C2.01213 10.3336 2.0101 10.4166 2.0101 10.5C2.0101 13.5376 4.69187 16 8 16C11.3082 16 13.9899 13.5376 13.9899 10.5C13.9899 10.4166 13.9878 10.3336 13.9839 10.2512L15.247 11.3612L16 10.6388L13.4453 8.39366L10.8907 10.6388L11.6438 11.3612L12.8941 10.2623C12.8985 10.341 12.9008 10.4203 12.9008 10.5C12.9008 12.8163 10.9949 14.7238 8.54457 14.9725V8H10.1781V7H8.54457V3.93699C9.48401 3.71497 10.1781 2.93192 10.1781 2C10.1781 0.89543 9.20299 0 8.00003 0ZM6.91096 2C6.91096 1.44772 7.39855 1 8.00003 1C8.60151 1 9.08911 1.44772 9.08911 2C9.08911 2.55228 8.60151 3 8.00003 3C7.39855 3 6.91096 2.55228 6.91096 2Z" fill="black"/>
</svg>
