<svg width="16" height="19" viewBox="0 0 16 19" fill="none" xmlns="http://www.w3.org/2000/svg">
<path d="M9 1.79688V7.29688C9 8.12531 9.67157 8.79688 10.5 8.79688H16C16 4.93089 12.866 1.79688 9 1.79688ZM14.917 7.79688C14.4955 5.28437 12.5125 3.30136 10 2.87984V7.29688C10 7.57302 10.2239 7.79688 10.5 7.79688H14.917Z" fill="black"/>
<path d="M7 3.79688C3.13401 3.79688 0 6.93089 0 10.7969C0 14.6629 3.13401 17.7969 7 17.7969C10.866 17.7969 14 14.6629 14 10.7969H7.5C7.22386 10.7969 7 10.573 7 10.2969V3.79688ZM6 4.87983C3.16229 5.35591 1 7.82387 1 10.7969C1 14.1106 3.68629 16.7969 7 16.7969C9.973 16.7969 12.441 14.6346 12.917 11.7969H7.5C6.67157 11.7969 6 11.1253 6 10.2969V4.87983Z" fill="black"/>
</svg>
